<svg version="1" xmlns="http://www.w3.org/2000/svg" width="933.333" height="933.333" viewBox="0 0 700.000000 700.000000"><path d="M194.5 199.9c1.8 5.3 5.2 14.8 7.5 21.1 2.3 6.3 6.3 17.6 9 25 4.9 14 28.1 78.9 32 89.5 1.2 3.3 3.3 9.1 4.7 13 1.3 3.8 3.3 9.2 4.3 12 1 2.7 5.3 14.7 9.5 26.5s8.7 24.4 10 28c3 8.1 29.6 82.6 32.1 89.7 1.6 4.5 2.3 5.3 4.4 5.4 17.9.5 85.4-.1 85.9-.7.4-.5 5.4-14 11.1-29.9 5.6-16 13.8-38.9 18.2-51 8-22.4 13.1-36.6 24-67C454 342.6 457.8 332 464 315c2.3-6.3 4.3-12 4.4-12.5.2-.6.6-1.7.9-2.5.7-1.8 5.9-16.5 9.4-26.5 1.3-3.9 3-8.6 3.8-10.5.8-1.9 4.8-13.2 9-25s9.7-27 12.1-33.7c2.4-6.8 4.4-12.7 4.4-13.1 0-.5-19.3-.9-44.2-.8l-44.2.1-9.9 30.5c-5.4 16.8-14.3 44.4-19.8 61.5-5.5 17-10.3 31.7-10.6 32.5-.3.8-.7 2-.8 2.6-.2.6-3.7 11.7-8 24.5-4.2 12.9-7.8 24.1-8 24.9-.2.8-2.8 8.9-5.8 18l-5.4 16.5-1.6-5c-2.5-8-21.4-67.8-28.2-89.5-3.2-10-5.7-17.9-12.5-39.5-7.4-23.4-9.3-29.4-16.6-52.7l-7.7-24.6H238l-46.8.1 3.3 9.6z"/></svg>