<?xml version="1.0" standalone="no"?>
<!DOCTYPE svg PUBLIC "-//W3C//DTD SVG 20010904//EN"
 "http://www.w3.org/TR/2001/REC-SVG-20010904/DTD/svg10.dtd">
<svg version="1.0" xmlns="http://www.w3.org/2000/svg"
 width="700.000000pt" height="700.000000pt" viewBox="0 0 700.000000 700.000000"
 preserveAspectRatio="xMidYMid meet">
<metadata>
Created by potrace 1.11, written by Peter Selinger 2001-2013
</metadata>
<g transform="translate(0.000000,700.000000) scale(0.100000,-0.100000)"
fill="#000000" stroke="none">
<path d="M1945 5001 c18 -53 52 -148 75 -211 23 -63 63 -176 90 -250 49 -140
281 -789 320 -895 12 -33 33 -91 47 -130 13 -38 33 -92 43 -120 10 -27 53
-147 95 -265 42 -118 87 -244 100 -280 30 -81 296 -826 321 -897 16 -45 23
-53 44 -54 179 -5 854 1 859 7 4 5 54 140 111 299 56 160 138 389 182 510 80
224 131 366 240 670 68 189 106 295 168 465 23 63 43 120 44 125 2 6 6 17 9
25 7 18 59 165 94 265 13 39 30 86 38 105 8 19 48 132 90 250 42 118 97 270
121 337 24 68 44 127 44 131 0 5 -193 9 -442 8 l-442 -1 -99 -305 c-54 -168
-143 -444 -198 -615 -55 -170 -103 -317 -106 -325 -3 -8 -7 -20 -8 -26 -2 -6
-37 -117 -80 -245 -42 -129 -78 -241 -80 -249 -2 -8 -28 -89 -58 -180 l-54
-165 -16 50 c-25 80 -214 678 -282 895 -32 100 -57 179 -125 395 -74 234 -93
294 -166 527 l-77 246 -467 0 -468 -1 33 -96z"/>
</g>
</svg>
